<svg xmlns="http://www.w3.org/2000/svg" viewBox="0 0 150 150">
  <style>
    path { fill: #020202; }
    @media (prefers-color-scheme: dark) {
      path { fill: #f7f3eb; }
    }
  </style>
  <path d="m94 58 3.8-6 34.3 21.6h16.4l-45.9-29.8 21.8-34.3h-99l21.8 34.4-45.8 29.7h16.4l34.5-21.6 3.5 6-30.4 19.3c9.7 9.8 26.9 22.5 49.8 22.5 18.4 0 36.3-9.2 49.2-22.5l-30.4-19.3zm-19 13.5-32.8-53.3h65.3l-32.5 53.3zm0 19.6c-11.3 0-21.8-4-34.8-12.8l20.4-12.6 0.9 1.4c-0.2 1-0.3 2.1-0.3 3.3 0 7 5.5 13.9 13.8 13.9s13.8-6.6 13.8-13.6c0-1-0.1-2.1-0.3-3.4l1-1.6 20 12.6c-8.8 6.3-20.2 12.8-34.5 12.8z" />
  <path d="m92.6 103.4-17.6 22.6-17.2-22.5c-4-1-11-3.7-19.3-8.9l36.5 45.9 36.3-46.1c-5.8 3.5-13 7.3-18.7 9z" />
</svg>
